<?xml version="1.0" standalone="no"?>
<!DOCTYPE svg PUBLIC "-//W3C//DTD SVG 20010904//EN"
 "http://www.w3.org/TR/2001/REC-SVG-20010904/DTD/svg10.dtd">
<svg version="1.0" xmlns="http://www.w3.org/2000/svg"
 width="512.000000pt" height="512.000000pt" viewBox="0 0 512.000000 512.000000"
 preserveAspectRatio="xMidYMid meet">
<metadata>
Created by potrace 1.11, written by Peter Selinger 2001-2013
</metadata>
<g transform="translate(0.000000,512.000000) scale(0.100000,-0.100000)"
fill="#000000" stroke="none">
<path d="M2800 5089 c-232 -29 -406 -223 -408 -456 -2 -127 46 -243 137 -334
182 -181 470 -181 652 1 88 88 127 173 136 301 9 137 -37 259 -133 353 -107
106 -242 153 -384 135z"/>
<path d="M1700 4094 c-30 -8 -65 -15 -76 -18 -31 -6 -137 -60 -186 -95 -100
-70 -264 -257 -383 -438 -32 -48 -66 -100 -76 -114 -9 -14 -40 -72 -68 -130
-60 -122 -101 -271 -96 -346 10 -148 114 -243 360 -330 67 -23 97 -28 180 -28
92 0 104 2 154 30 105 58 92 28 326 760 173 541 163 504 159 564 -9 122 -132
183 -294 145z"/>
<path d="M2304 3971 c-64 -39 -56 -16 -244 -691 -129 -464 -183 -657 -186
-675 -2 -11 -6 -31 -9 -45 -14 -60 -17 -218 -6 -270 30 -139 100 -235 286
-390 55 -46 105 -88 110 -94 6 -6 35 -31 65 -56 92 -75 108 -89 241 -201 29
-26 114 -97 187 -159 l134 -113 -6 -46 c-3 -25 -8 -71 -11 -101 -3 -30 -8 -71
-10 -90 -2 -19 -7 -64 -10 -100 -4 -36 -8 -81 -10 -100 -2 -19 -7 -66 -11
-105 -3 -38 -8 -81 -10 -95 -23 -181 -27 -454 -7 -510 37 -102 139 -135 211
-67 35 33 91 155 106 233 2 11 11 53 20 94 8 41 17 89 20 105 3 17 10 55 16
85 12 59 15 77 30 155 5 28 34 181 66 340 65 334 74 455 38 533 -13 31 -113
137 -352 375 l-333 333 61 249 c34 138 63 258 65 268 4 17 40 166 97 399 19
80 22 86 40 77 11 -6 117 -81 236 -167 119 -87 228 -164 242 -173 66 -42 165
-53 219 -25 17 9 97 57 177 106 80 50 149 90 152 90 4 0 7 -685 7 -1523 1
-837 4 -1534 8 -1548 13 -50 40 -69 96 -69 63 0 86 11 106 50 13 25 15 222 15
1634 l0 1604 66 47 c107 77 174 157 169 205 -1 8 -3 22 -3 31 -2 21 -41 63
-72 80 -27 14 -79 14 -129 -1 l-31 -9 0 106 c0 119 -15 165 -61 188 -36 19
-63 19 -104 -1 -52 -24 -61 -60 -60 -240 l0 -157 -145 -69 c-80 -38 -162 -76
-182 -85 l-37 -15 -238 173 c-131 95 -272 198 -313 229 -92 67 -119 79 -290
126 -74 20 -181 49 -236 65 -120 34 -139 35 -180 10z"/>
<path d="M1785 1869 c-14 -83 -21 -131 -30 -204 -4 -27 -13 -90 -20 -140 -8
-49 -17 -112 -21 -140 -3 -27 -15 -68 -27 -90 -11 -22 -20 -42 -20 -45 0 -14
-179 -418 -274 -620 -134 -283 -166 -368 -167 -447 -1 -42 4 -57 21 -75 30
-29 94 -29 156 1 57 28 155 125 229 227 79 111 478 736 517 811 26 49 116 315
108 318 -1 1 -54 40 -118 88 -162 122 -290 250 -332 331 l-15 30 -7 -45z"/>
</g>
</svg>
